<svg width="24" height="20" viewBox="0 0 24 20" fill="none" xmlns="http://www.w3.org/2000/svg">
<path d="M8.25 0C7.93303 0 7.67857 0.254463 7.67857 0.571429V2.28571H16.25V0.571429C16.25 0.254457 15.9955 0 15.6786 0H8.25ZM2.82143 3.42857C1.39731 3.42857 0.25 4.57589 0.25 6V8.51786C2.86606 9.93526 6.40629 10.8929 10.366 11.0982C10.6138 10.4553 11.2343 9.99997 11.9642 9.99997C12.6953 9.99997 13.3247 10.4542 13.5714 11.0982C17.5279 10.8917 21.0648 9.93414 23.6785 8.51786V6C23.6785 4.57589 22.5312 3.42857 21.1071 3.42857H2.82143ZM0.25 9.80343V17.4286C0.25 18.8527 1.39731 20 2.82143 20H21.1071C22.5313 20 23.6786 18.8527 23.6786 17.4286V9.80343C20.9431 11.1661 17.4531 12.0456 13.5983 12.2409C13.3751 12.9295 12.7266 13.4284 11.9643 13.4284C11.2021 13.4284 10.5626 12.9295 10.3393 12.2409C6.48106 12.0467 2.98791 11.1661 0.2502 9.80343H0.25Z" fill="#2E84FF"/>
</svg>
