<svg width="22" height="20" viewBox="0 0 22 20" fill="none" xmlns="http://www.w3.org/2000/svg">
<path d="M14.4267 0.728397V2.59316L17.2987 5.29453V0.72844L14.4267 0.728397ZM21.436 10.0104L10.718 0L0 10.0104H2.1436V19.2924C2.1436 20 2.1436 20 2.85117 20H18.564C19.2716 20 19.2716 20 19.2716 19.2924L19.2707 10.0104H21.436ZM11.2113 6.43081C11.7045 6.43081 11.7045 6.43081 11.7045 6.90224V7.39544C12.819 7.52439 14.127 8.70338 14.0198 10.2466H12.1123C12.0696 9.62534 11.6409 9.04588 10.7834 9.04588C10.0114 9.04588 9.45458 9.49638 9.45458 10.0323C9.45458 10.8252 10.5909 11.1041 11.3193 11.2967C11.9624 11.4466 14.0842 11.9615 14.0842 14.0188C14.0842 15.4767 12.9479 16.6557 11.7043 16.9127V17.4059C11.7043 17.8773 11.7043 17.8773 11.2111 17.8773H10.2683C9.77509 17.8773 9.77509 17.8773 9.77509 17.4059V16.9127C8.59611 16.6766 7.39526 15.8191 7.39526 14.0615H9.30273C9.30273 14.512 9.75323 15.2622 10.7388 15.2622C11.5744 15.2622 12.1748 14.8335 12.1748 14.0615C12.1748 13.1823 11.1248 13.0115 10.2674 12.7753C9.08837 12.4538 7.54519 11.9397 7.54519 10.0532C7.54519 8.6816 8.40263 7.73785 9.77411 7.39552V6.90232C9.77411 6.4309 9.77411 6.4309 10.2673 6.4309L11.2113 6.43081Z" fill="#2E84FF"/>
</svg>
