<svg width="24" height="18" viewBox="0 0 24 18" fill="none" xmlns="http://www.w3.org/2000/svg">
<path d="M21.5961 5.41965C21.5483 5.41965 21.2221 5.41689 20.9746 5.41965C20.6278 4.87642 20.1928 4.3911 19.6866 3.98483C19.5741 3.89567 19.5188 3.81754 19.5113 3.49584C19.5066 3.3166 19.5188 3.12175 19.5281 2.91216C19.5741 2.04815 19.6359 0.862445 18.5438 0.24098C17.9316 -0.107389 17.1564 -0.0770585 16.4242 0.325544H16.4252C15.7633 0.695961 15.1821 1.19048 14.7134 1.77966C14.3534 1.71624 14.0225 1.67396 13.7057 1.64822C11.3639 1.39913 8.99687 1.77323 6.85379 2.73284L6.85098 2.72548H6.85192C4.74359 3.69979 3.17796 5.53173 2.56768 7.73772C2.29395 7.77908 2.03896 7.90041 1.83552 8.08609C1.51022 8.38389 1.35649 8.8205 1.4268 9.25158C1.49711 9.68266 1.7821 10.0512 2.18614 10.2342C2.17489 10.6064 2.19271 10.9787 2.24145 11.3473C2.32301 11.9944 2.50206 12.6267 2.77204 13.2224C2.57799 13.2022 2.38206 13.2031 2.18895 13.2251C1.74552 13.2343 1.3068 13.3125 0.887761 13.4558C0.561523 13.5533 0.276539 13.7536 0.0768701 14.0248L0 14.1526V17.0591L0.0768701 17.1859C0.333728 17.6115 0.898081 17.7742 1.35554 17.8753V17.8744C1.94519 18.0049 2.5536 18.0343 3.15357 17.9598C3.60916 17.9258 4.05352 17.8017 4.4585 17.5949C4.70317 17.7282 4.96753 17.8247 5.24126 17.8799C5.53844 17.9405 5.84029 17.969 6.14402 17.9663H9.19641C10.1198 17.9653 10.9101 17.3183 11.0751 16.4276H13.504C13.6146 17.0719 14.073 17.6078 14.702 17.8256C15.1342 17.9534 15.587 18.0049 16.0379 17.9782L18.1209 17.9709H18.1218C18.5587 18.0039 18.9946 17.9065 19.3743 17.6914C19.6996 17.4589 19.9274 17.1188 20.0174 16.7337C20.1055 16.3099 20.1355 15.8761 20.1064 15.4441C21.146 14.6233 21.8848 13.4927 22.2082 12.2225C23.2675 11.9835 24.0128 11.0524 23.9987 9.98711V7.7848C24.0203 7.15333 23.7737 6.54116 23.3191 6.09354C22.8644 5.645 22.2411 5.40127 21.5961 5.41965ZM15.9442 7.07413H15.9451C15.9461 6.69818 16.2573 6.39395 16.6407 6.39395H16.7148C17.0982 6.39395 17.4085 6.69912 17.4085 7.07413V7.15225C17.4076 7.52728 17.0982 7.83059 16.7148 7.83151H16.6407C16.2573 7.83059 15.947 7.52726 15.9451 7.15225L15.9442 7.07413ZM3.91872 16.672C3.7481 16.7731 3.3375 16.933 2.50035 16.933H2.50129C2.31755 16.934 2.13382 16.9257 1.951 16.9073C1.64634 16.8917 1.34822 16.8117 1.0773 16.672V14.5377C1.34822 14.3989 1.64634 14.318 1.951 14.3024C2.1338 14.2849 2.31753 14.2757 2.50129 14.2767C2.82472 14.2721 3.14906 14.3042 3.46591 14.3713C3.62528 14.4017 3.77809 14.4587 3.9187 14.5377L3.91872 16.672ZM7.83722 16.9073C7.83722 16.9073 6.57448 16.9165 6.41885 16.9192C6.26324 16.9192 6.10481 16.9165 5.94826 16.9073H5.9492C5.64077 16.8972 5.33704 16.8301 5.05393 16.7097C5.03518 16.7023 5.01737 16.694 4.99862 16.6839V11.338C5.26861 11.1983 5.56578 11.1184 5.87044 11.1027C6.05231 11.0834 6.23604 11.0742 6.4198 11.0742C7.25975 11.0742 7.67034 11.2369 7.83817 11.338L7.83722 16.9073Z" fill="#2E84FF"/>
</svg>
