<svg width="22" height="20" viewBox="0 0 22 20" fill="none" xmlns="http://www.w3.org/2000/svg">
<path fill-rule="evenodd" clip-rule="evenodd" d="M4.64943 0.924728C4.64943 0.924728 0.337003 16.0452 0.117107 17.0182C-0.102894 17.9911 -0.250141 19.404 1.97967 20H16.9889C17.5753 20 17.6252 19.6853 17.7716 19.333C17.7716 19.333 21.4362 4.38254 21.6193 3.7435C21.8025 3.1054 21.2591 2.40772 21.2591 2.40772L19.5561 0.454892C19.5561 0.454892 19.145 0 18.6016 0C18.0581 0 6.42966 0.109562 5.63287 0.109562C4.83609 0.109562 4.6477 0.923826 4.6477 0.923826L4.64943 0.924728ZM8.15025 2.89686H15.3727L13.412 8.56343H6.18885L8.14958 2.89686H8.15025ZM2.29879 16.7411H15.0211L18.6148 3.09588C18.9014 2.00639 20.5466 2.44728 20.2591 3.53675L16.3333 18.4434H2.29881C1.17252 18.4434 1.17252 16.7404 2.29881 16.7404L2.29879 16.7411Z" fill="#2E84FF"/>
</svg>
