<svg width="21" height="20" viewBox="0 0 21 20" fill="none" xmlns="http://www.w3.org/2000/svg">
<path d="M0.425284 20.0001H3.48691C3.74191 20.0001 3.91219 19.8298 3.91219 19.5748V11.0691C3.91219 10.8141 3.74191 10.6438 3.48691 10.6438H0.425284C0.170284 10.6438 0 10.8141 0 11.0691V19.5748C0 19.8298 0.17028 20.0001 0.425284 20.0001Z" fill="#2E84FF"/>
<path d="M20.201 14.7263C19.7333 13.9604 18.7548 13.7054 17.9466 14.0883L14.5443 15.3218C14.5019 15.3218 14.4596 15.3642 14.4164 15.3642C13.8632 15.9598 12.8855 16.768 11.1844 16.768H10.8015C10.5465 16.768 10.3762 16.5553 10.4186 16.3003C10.4186 16.0877 10.6312 15.875 10.8862 15.9174C12.29 16.0021 13.1406 15.4498 13.6505 14.9821C13.5226 13.9613 12.6297 13.153 11.5665 13.153H9.52478C7.22804 13.2378 7.1434 12.643 6.80275 12.5151C6.16483 12.1322 5.48454 11.8772 4.71869 11.7925L4.72035 19.3621C5.27356 19.5324 5.95384 19.6171 6.29356 19.6171C12.1629 19.4468 13.5234 20.0424 15.6075 18.9792L19.4774 16.9807C20.3711 16.513 20.6685 15.5346 20.2008 14.7263L20.201 14.7263Z" fill="#2E84FF"/>
<path d="M20.0307 2.13806C19.4351 0.862209 18.2448 0.01164 16.713 0.01164C15.7345 0.01164 14.7569 0.352208 13.991 0.990134H13.9486C13.1404 0.309849 12.0772 -0.0730766 11.014 0.01164C9.6534 0.0963652 8.50458 0.862209 7.95235 2.0957C7.35678 3.37156 7.48471 4.81774 8.33528 5.96558L13.3107 12.6855C13.481 12.8981 13.736 13.0684 14.0333 13.0684C14.3307 13.0684 14.5865 12.9405 14.756 12.6855L19.7314 5.96558C20.498 4.86001 20.6259 3.37156 20.0304 2.13802L20.0307 2.13806Z" fill="#2E84FF"/>
</svg>
