<svg width="20" height="20" viewBox="0 0 20 20" fill="none" xmlns="http://www.w3.org/2000/svg">
<path d="M17.739 10.788L10.3521 3.99949C10.2093 3.88559 10.0096 3.88559 9.89567 3.99949L2.22413 10.788C2.1383 10.845 2.11023 10.9589 2.11023 11.0447V19.6292C2.11023 19.8001 2.28108 19.9709 2.45195 19.9709H7.24309C7.35699 19.9709 7.41394 19.8851 7.41394 19.7712L7.41475 14.9801C7.41475 13.5828 8.55539 12.4422 9.95262 12.4422C11.3499 12.4422 12.4905 13.5828 12.4905 14.9801V19.8002C12.4905 19.9141 12.5763 19.9999 12.6614 19.9999H17.4525C17.6522 19.9999 17.795 19.829 17.795 19.6574L17.7958 11.0449C17.8528 10.9302 17.7958 10.8452 17.7389 10.7883L17.739 10.788Z" fill="#2E84FF"/>
<path d="M19.9065 8.87657L18.2805 7.39341C18.2525 7.36534 18.2525 7.33646 18.2525 7.30839V1.26196C18.2525 1.20501 18.3094 1.14805 18.3664 1.14805H18.5942C18.6511 1.14805 18.7081 1.0911 18.7081 1.03415L18.7089 0.121324C18.7089 0.0643735 18.6519 0.0074207 18.595 0.0074207H14.7447C14.6878 0.0074207 14.6308 0.0643715 14.6308 0.121324V1.03415C14.6308 1.0911 14.6878 1.14805 14.7447 1.14805H14.9726C15.0295 1.14805 15.0865 1.20501 15.0865 1.26196V4.17131C15.0865 4.28521 14.9726 4.34216 14.8867 4.25714L10.2954 0.0643715C10.2096 -0.0214572 10.0676 -0.0214572 9.98176 0.0643715L0.0569508 8.87661C0.028075 8.90549 0 8.96244 0 9.01939V10.845C0 11.0159 0.199732 11.1017 0.313626 10.9878L9.98175 2.40249C10.0676 2.31666 10.2096 2.31666 10.2954 2.40249L19.7068 11.0439C19.7926 11.1297 19.9635 11.0728 19.9635 10.93V9.01929C19.9635 8.96234 19.9354 8.90539 19.9065 8.87651L19.9065 8.87657Z" fill="#2E84FF"/>
</svg>
