<svg width="20" height="20" viewBox="0 0 20 20" fill="none" xmlns="http://www.w3.org/2000/svg">
<path d="M8.51571 7.2966C8.59657 7.19514 8.29217 7.43849 8.19071 7.53995C7.44005 8.18914 6.60774 9.00084 5.85708 9.97504C5.10642 10.9286 4.43661 12.0654 3.88887 13.2218C3.34114 14.3783 2.99633 15.6165 2.77279 16.773C2.67132 17.3612 2.61029 17.9097 2.54925 18.4574C2.52864 18.9037 2.50882 19.3912 2.50882 19.7971C2.50882 19.8985 2.42797 20 2.30589 20H0.237079C0.115007 20 0.034154 19.8985 0.034154 19.7765C0.0943982 19.2493 0.216469 18.6405 0.317924 18.1126C0.459812 17.5245 0.62231 16.8951 0.825235 16.2657C1.0892 15.4944 1.41339 14.7033 1.77882 13.9528C1.81924 13.8719 1.79943 13.7903 1.73839 13.7292C0.378959 12.3088 -0.311552 10.2184 0.135612 8.10842C0.176039 7.9055 0.237074 7.70257 0.29811 7.49965C1.7392 2.30437 6.99462 -0.921722 12.311 0.234745C15.1116 0.822901 17.4049 2.54768 18.8253 4.80055C19.0282 5.12555 19.2106 5.44974 19.3731 5.79455C19.5554 6.15998 19.7179 6.54521 19.8597 6.95106C19.9208 7.11356 19.7583 7.27606 19.5958 7.19441C19.251 7.03191 18.8855 6.91064 18.4797 6.80918C15.7402 6.20119 13.0007 7.96647 12.4127 10.7463C11.723 14.0335 8.5364 16.1642 5.22954 15.6165C5.06704 15.5959 4.96558 15.454 4.96558 15.2915C4.94497 14.3379 5.20892 11.1324 8.51594 7.29668L8.51571 7.2966Z" fill="#2E84FF"/>
</svg>
