<svg width="19" height="20" viewBox="0 0 19 20" fill="none" xmlns="http://www.w3.org/2000/svg">
<path d="M10.5449 14.1055L14.5857 7.43385C14.6909 7.26531 14.8176 7.07622 14.9647 6.92906V0.71936C14.9647 0.50889 14.8809 0.319804 14.7123 0.193185C14.5652 0.066575 14.3547 0.00409077 14.1648 0.0246452L13.9962 0.0460205C9.66013 0.572195 5.26174 0.572195 0.947106 0.0460205L0.820495 0.00409075C0.610025 -0.0172846 0.399556 0.0460205 0.252395 0.172631C0.105231 0.319795 0 0.508898 0 0.719368V7.51775C0 8.8225 0.252395 10.1067 0.736644 11.3277C1.8523 14.0844 4.50363 15.8947 7.49314 15.8947C7.87216 15.8947 8.22979 15.8733 8.6088 15.8108C8.69266 15.6423 8.77734 15.4951 8.8612 15.3479C9.28214 14.7371 9.8708 14.3161 10.545 14.1057L10.5449 14.1055ZM10.313 4.00298C11.723 4.00298 12.2287 5.16057 12.2706 5.79198C12.292 5.91859 12.2492 6.04437 12.1653 6.12906C12.0815 6.21292 11.9763 6.27623 11.8496 6.27623H8.79783C8.67122 6.27623 8.56598 6.2343 8.48213 6.12906C8.39827 6.0452 8.35552 5.91859 8.37689 5.79198C8.41882 5.16057 8.90307 4.00298 10.313 4.00298ZM2.8199 6.10768C2.73604 6.02382 2.69329 5.89721 2.71467 5.77059C2.77797 5.16057 3.24084 3.9816 4.67221 3.9816C6.06164 3.9816 6.56643 5.13918 6.62974 5.77059C6.65112 5.8972 6.60837 6.02299 6.52451 6.10768C6.44065 6.19154 6.31404 6.25484 6.18742 6.25484H3.13561C3.03037 6.25484 2.90458 6.21291 2.8199 6.10768ZM7.49296 11.8956C6.23014 11.8956 5.11444 11.2428 4.48304 10.1485C4.29394 9.81144 4.39918 9.36996 4.73543 9.18003C5.07252 8.99094 5.514 9.09617 5.70393 9.43243C6.08294 10.0638 6.75628 10.4634 7.49292 10.4634C8.22957 10.4634 8.9029 10.0844 9.23999 9.45297C9.42908 9.09534 9.8714 8.99011 10.2085 9.17919C10.5456 9.36829 10.6714 9.8106 10.4823 10.1477C9.89196 11.2428 8.75576 11.8956 7.49296 11.8956V11.8956Z" fill="#2E84FF"/>
<path d="M18.0166 7.53909C17.238 6.99153 16.1437 7.22338 15.6595 8.06526L12.0388 14.0422C12.4598 14.1055 12.8593 14.274 13.2178 14.5264C13.5754 14.7788 13.8706 15.074 14.1016 15.4316L18.3948 9.91752C18.9637 9.15949 18.7951 8.06522 18.0166 7.539L18.0166 7.53909Z" fill="#2E84FF"/>
<path d="M12.523 15.5369C11.6597 14.9475 10.4816 15.1579 9.87062 16.0212C9.23921 16.9469 9.87062 18.2096 8.75496 19.4306C8.54449 19.6411 8.69166 19.9987 8.98682 19.9987C11.0701 20.0406 12.3758 19.073 12.9857 18.1678C13.5966 17.3045 13.3861 16.1264 12.5229 15.5369L12.523 15.5369Z" fill="#2E84FF"/>
</svg>
