<svg width="25" height="25" viewBox="0 0 25 25" fill="none" xmlns="http://www.w3.org/2000/svg">
<path d="M9.22958 1.00006C11.3123 1.00211 13.3168 1.79477 14.8385 3.21687C16.3591 4.63898 17.2829 6.58563 17.4226 8.66298C17.5623 10.7403 16.9078 12.7927 15.5916 14.4058L17.0383 15.8597L17.1123 15.7858C17.7534 15.1492 18.7891 15.1492 19.4303 15.7858L23.2032 19.5562C24.1629 20.4906 24.2687 21.9958 23.4498 23.0553C22.9813 23.6221 22.2949 23.9651 21.5593 24H21.4277C20.7476 23.9969 20.0961 23.7289 19.6112 23.2525L15.8054 19.4082C15.1683 18.7675 15.1683 17.7325 15.8054 17.0918L15.8793 17.0179L14.4245 15.5722C12.3551 17.2643 9.59122 17.8444 7.0164 17.1278C4.44052 16.4111 2.37439 14.4879 1.4764 11.9713C0.579406 9.4547 0.963698 6.65876 2.50594 4.47574C4.04818 2.29383 6.55612 0.997113 9.22958 1V1.00006ZM20.8112 22.0861C20.992 22.276 21.2479 22.3756 21.5098 22.3571C21.7708 22.3417 22.0123 22.2164 22.1756 22.0121C22.4582 21.6065 22.4027 21.0552 22.0441 20.7143L18.2712 16.9439L16.9642 18.2499L20.8112 22.0861ZM9.22958 15.7857C10.9732 15.7857 12.6458 15.0936 13.8789 13.8605C15.1129 12.6283 15.8055 10.9567 15.8055 9.21424C15.8055 7.47177 15.1129 5.80027 13.8789 4.568C12.646 3.33484 10.9732 2.6428 9.22958 2.6428C7.48594 2.6428 5.81331 3.33484 4.58021 4.568C3.34622 5.80014 2.65371 7.47177 2.65371 9.21424C2.65371 10.9567 3.34622 12.6282 4.58021 13.8605C5.81318 15.0936 7.48594 15.7857 9.22958 15.7857Z" fill="#2E84FF" stroke="#2E84FF" stroke-width="0.25"/>
</svg>
