<svg width="117" height="117" viewBox="0 0 117 117" fill="none" xmlns="http://www.w3.org/2000/svg">
<path d="M41.6174 100.036C18.6328 90.7571 7.52216 64.6022 16.8012 41.6175C26.0803 18.6329 52.2352 7.52227 75.2198 16.8013C98.2045 26.0804 109.315 52.2353 100.036 75.22C90.757 98.2046 64.6021 109.315 41.6174 100.036Z" fill="url(#paint0_linear_324_28)"/>
<path d="M49.0609 24.2101C48.5949 24.2732 48.2391 24.7759 48.3393 25.2321L49.9562 32.5987L43.5455 28.2188C43.2532 27.9766 42.7938 27.9633 42.4882 28.189C42.1825 28.413 42.0605 28.8543 42.2092 29.2027L51.8085 52.007L40.908 62.6517C40.594 62.9287 40.5372 63.4497 40.7844 63.7865C41.0317 64.1233 41.5478 64.2295 41.9102 64.0188L68.8608 48.302C69.1181 48.1543 69.2868 47.8673 69.2885 47.5719V45.3553L76.6548 44.5855C77.0072 44.5424 77.3179 44.257 77.388 43.9103C77.4582 43.5635 77.2845 43.1819 76.9755 43.0061L69.2752 38.7587C68.9812 38.5961 68.5887 38.6293 68.3264 38.8384L64.7035 41.7186L49.8374 24.502C49.5801 24.2349 49.3262 24.1785 49.0623 24.21L49.0609 24.2101ZM50.7446 28.1787L63.9251 43.4428C64.2073 43.7796 64.7703 43.836 65.1143 43.5622L67.5747 41.6111V47.0795L57.0398 53.225C54.7798 45.1649 52.5885 36.5908 50.7425 28.1772L50.7446 28.1787ZM45.1224 31.7093L50.5577 35.3063L55.5034 54.1156L47.985 58.3486L53.4102 52.8677C53.6691 52.6338 53.7593 52.2323 53.624 51.9121L45.1224 31.7093ZM69.2872 40.7086L73.7655 43.1773L69.2872 43.6419V40.7086Z" fill="white"/>
<path d="M25.2586 80.6741V68.0741H27.9946L32.0086 76.0661L35.9686 68.0741H38.7046V80.6741H36.4006V71.9801L32.8906 78.8741H31.0726L27.5626 71.9801V80.6741H25.2586ZM42.5753 70.3601C42.1553 70.3601 41.8073 70.2341 41.5313 69.9821C41.2673 69.7301 41.1353 69.4121 41.1353 69.0281C41.1353 68.6441 41.2673 68.3321 41.5313 68.0921C41.8073 67.8401 42.1553 67.7141 42.5753 67.7141C42.9953 67.7141 43.3373 67.8401 43.6013 68.0921C43.8773 68.3321 44.0153 68.6441 44.0153 69.0281C44.0153 69.4121 43.8773 69.7301 43.6013 69.9821C43.3373 70.2341 42.9953 70.3601 42.5753 70.3601ZM41.4233 80.6741V71.7461H43.7273V80.6741H41.4233ZM50.1503 78.0101C49.7183 78.0101 49.3163 77.9621 48.9443 77.8661L48.2783 78.5321C48.4823 78.6401 48.7583 78.7301 49.1063 78.8021C49.4543 78.8741 50.0183 78.9461 50.7983 79.0181C51.9863 79.1261 52.8503 79.4081 53.3903 79.8641C53.9303 80.3201 54.2003 80.9501 54.2003 81.7541C54.2003 82.2821 54.0563 82.7801 53.7683 83.2481C53.4803 83.7281 53.0363 84.1121 52.4363 84.4001C51.8363 84.7001 51.0683 84.8501 50.1323 84.8501C48.8603 84.8501 47.8343 84.6101 47.0543 84.1301C46.2743 83.6621 45.8843 82.9541 45.8843 82.0061C45.8843 81.2021 46.2743 80.5061 47.0543 79.9181C46.8143 79.8101 46.6043 79.6961 46.4243 79.5761C46.2563 79.4561 46.1063 79.3301 45.9743 79.1981V78.7841L47.5403 77.1281C46.8443 76.5161 46.4963 75.7301 46.4963 74.7701C46.4963 74.1701 46.6403 73.6241 46.9283 73.1321C47.2283 72.6401 47.6483 72.2501 48.1883 71.9621C48.7283 71.6741 49.3823 71.5301 50.1503 71.5301C50.6543 71.5301 51.1223 71.6021 51.5543 71.7461H54.9383V73.1501L53.4083 73.2581C53.6483 73.7141 53.7683 74.2181 53.7683 74.7701C53.7683 75.3701 53.6243 75.9161 53.3363 76.4081C53.0483 76.9001 52.6283 77.2901 52.0763 77.5781C51.5363 77.8661 50.8943 78.0101 50.1503 78.0101ZM50.1503 76.2461C50.6183 76.2461 51.0023 76.1201 51.3023 75.8681C51.6143 75.6161 51.7703 75.2561 51.7703 74.7881C51.7703 74.3201 51.6143 73.9601 51.3023 73.7081C51.0023 73.4561 50.6183 73.3301 50.1503 73.3301C49.6583 73.3301 49.2623 73.4561 48.9623 73.7081C48.6623 73.9601 48.5123 74.3201 48.5123 74.7881C48.5123 75.2561 48.6623 75.6161 48.9623 75.8681C49.2623 76.1201 49.6583 76.2461 50.1503 76.2461ZM47.9903 81.7721C47.9903 82.2161 48.1943 82.5461 48.6023 82.7621C49.0223 82.9901 49.5323 83.1041 50.1323 83.1041C50.7083 83.1041 51.1763 82.9841 51.5363 82.7441C51.8963 82.5161 52.0763 82.2041 52.0763 81.8081C52.0763 81.4841 51.9563 81.2141 51.7163 80.9981C51.4883 80.7821 51.0263 80.6501 50.3303 80.6021C49.8383 80.5661 49.3823 80.5121 48.9623 80.4401C48.6143 80.6321 48.3623 80.8421 48.2063 81.0701C48.0623 81.2981 47.9903 81.5321 47.9903 81.7721ZM56.8564 80.6741V71.7461H58.9084L59.1244 73.4201C59.4484 72.8441 59.8864 72.3881 60.4384 72.0521C61.0024 71.7041 61.6624 71.5301 62.4184 71.5301V73.9601H61.7704C61.2664 73.9601 60.8164 74.0381 60.4204 74.1941C60.0244 74.3501 59.7124 74.6201 59.4844 75.0041C59.2684 75.3881 59.1604 75.9221 59.1604 76.6061V80.6741H56.8564ZM67.3092 80.8901C66.5412 80.8901 65.9112 80.7701 65.4192 80.5301C64.9272 80.2781 64.5612 79.9481 64.3212 79.5401C64.0812 79.1321 63.9612 78.6821 63.9612 78.1901C63.9612 77.3621 64.2852 76.6901 64.9332 76.1741C65.5812 75.6581 66.5532 75.4001 67.8492 75.4001H70.1172V75.1841C70.1172 74.5721 69.9432 74.1221 69.5952 73.8341C69.2472 73.5461 68.8152 73.4021 68.2992 73.4021C67.8312 73.4021 67.4232 73.5161 67.0752 73.7441C66.7272 73.9601 66.5112 74.2841 66.4272 74.7161H64.1772C64.2372 74.0681 64.4532 73.5041 64.8252 73.0241C65.2092 72.5441 65.7012 72.1781 66.3012 71.9261C66.9012 71.6621 67.5732 71.5301 68.3172 71.5301C69.5892 71.5301 70.5912 71.8481 71.3232 72.4841C72.0552 73.1201 72.4212 74.0201 72.4212 75.1841V80.6741H70.4592L70.2432 79.2341C69.9792 79.7141 69.6072 80.1101 69.1272 80.4221C68.6592 80.7341 68.0532 80.8901 67.3092 80.8901ZM67.8312 79.0901C68.4912 79.0901 69.0012 78.8741 69.3612 78.4421C69.7332 78.0101 69.9672 77.4761 70.0632 76.8401H68.1012C67.4892 76.8401 67.0512 76.9541 66.7872 77.1821C66.5232 77.3981 66.3912 77.6681 66.3912 77.9921C66.3912 78.3401 66.5232 78.6101 66.7872 78.8021C67.0512 78.9941 67.3992 79.0901 67.8312 79.0901ZM78.7129 80.6741C77.7769 80.6741 77.0269 80.4461 76.4629 79.9901C75.8989 79.5341 75.6169 78.7241 75.6169 77.5601V73.6721H74.0869V71.7461H75.6169L75.8869 69.3521H77.9209V71.7461H80.3329V73.6721H77.9209V77.5781C77.9209 78.0101 78.0109 78.3101 78.1909 78.4781C78.3829 78.6341 78.7069 78.7121 79.1629 78.7121H80.2789V80.6741H78.7129ZM86.6587 80.8901C85.7587 80.8901 84.9607 80.6981 84.2647 80.3141C83.5687 79.9301 83.0227 79.3901 82.6267 78.6941C82.2307 77.9981 82.0327 77.1941 82.0327 76.2821C82.0327 75.3581 82.2247 74.5361 82.6087 73.8161C83.0047 73.0961 83.5447 72.5381 84.2287 72.1421C84.9247 71.7341 85.7407 71.5301 86.6767 71.5301C87.5527 71.5301 88.3267 71.7221 88.9987 72.1061C89.6707 72.4901 90.1927 73.0181 90.5647 73.6901C90.9487 74.3501 91.1407 75.0881 91.1407 75.9041C91.1407 76.0361 91.1347 76.1741 91.1227 76.3181C91.1227 76.4621 91.1167 76.6121 91.1047 76.7681H84.3187C84.3667 77.4641 84.6067 78.0101 85.0387 78.4061C85.4827 78.8021 86.0167 79.0001 86.6407 79.0001C87.1087 79.0001 87.4987 78.8981 87.8107 78.6941C88.1347 78.4781 88.3747 78.2021 88.5307 77.8661H90.8707C90.7027 78.4301 90.4207 78.9461 90.0247 79.4141C89.6407 79.8701 89.1607 80.2301 88.5847 80.4941C88.0207 80.7581 87.3787 80.8901 86.6587 80.8901ZM86.6767 73.4021C86.1127 73.4021 85.6147 73.5641 85.1827 73.8881C84.7507 74.2001 84.4747 74.6801 84.3547 75.3281H88.8007C88.7647 74.7401 88.5487 74.2721 88.1527 73.9241C87.7567 73.5761 87.2647 73.4021 86.6767 73.4021Z" fill="white"/>
<defs>
<linearGradient id="paint0_linear_324_28" x1="88.7875" y1="129.5" x2="29.9559" y2="-1.43817" gradientUnits="userSpaceOnUse">
<stop stop-color="#A5FECA"/>
<stop offset="0.135417" stop-color="#78EFD8"/>
<stop offset="0.335679" stop-color="#3EDCEB"/>
<stop offset="0.641347" stop-color="#2594FF"/>
<stop offset="1" stop-color="#5533FF"/>
</linearGradient>
</defs>
</svg>
