<svg width="22" height="20" viewBox="0 0 22 20" fill="none" xmlns="http://www.w3.org/2000/svg">
<path fill-rule="evenodd" clip-rule="evenodd" d="M2.40222 19.4568C2.40222 19.771 2.63123 20 2.94542 20H5.34818C5.66237 20 5.89138 19.771 5.89138 19.4568V16.1957H2.40232L2.40222 19.4568Z" fill="#2E84FF"/>
<path fill-rule="evenodd" clip-rule="evenodd" d="M15.9888 19.4568C15.9888 19.771 16.2178 20 16.5036 20H18.9347C19.2205 20 19.4779 19.771 19.4779 19.4568V16.1957H15.9888L15.9888 19.4568Z" fill="#2E84FF"/>
<path fill-rule="evenodd" clip-rule="evenodd" d="M4.48982 5.21251C4.37531 4.89832 3.91822 4.89832 3.80373 5.21251L0.314668 14.3938C0.143381 14.8518 0.314668 15.1092 0.801082 15.1092H4.06217C3.97606 14.795 3.97606 14.3938 4.11896 14.0218L5.97851 9.10174L4.49088 5.21125L4.48982 5.21251Z" fill="#2E84FF"/>
<path fill-rule="evenodd" clip-rule="evenodd" d="M11.2116 0.235642C11.0971 -0.0785475 10.6401 -0.0785475 10.5256 0.235642L5.14855 14.3937C4.97726 14.8517 5.17694 15.1091 5.63496 15.1091H16.1034C16.5614 15.1091 16.7611 14.8517 16.5898 14.3937L11.2128 0.235642H11.2116Z" fill="#2E84FF"/>
<path fill-rule="evenodd" clip-rule="evenodd" d="M9.12402 19.4568C9.12402 19.771 9.35304 20 9.63883 20H12.0699C12.3557 20 12.6131 19.771 12.6131 19.4568V16.1957H9.12407L9.12402 19.4568Z" fill="#2E84FF"/>
<path fill-rule="evenodd" clip-rule="evenodd" d="M17.3903 5.2125L15.8175 9.30262L17.5909 14.0219C17.7338 14.3938 17.7622 14.7941 17.6771 15.1092H21.0811C21.5391 15.1092 21.7388 14.8518 21.5675 14.3938L18.0784 5.21255C17.9355 4.89836 17.5068 4.89836 17.3923 5.21255L17.3903 5.2125Z" fill="#2E84FF"/>
</svg>
