<svg width="35" height="20" viewBox="0 0 35 20" fill="none" xmlns="http://www.w3.org/2000/svg">
<path fill-rule="evenodd" clip-rule="evenodd" d="M17.2017 11.697C20.5607 11.697 23.3074 14.4712 23.3074 17.8624V19.9988H11.0949V17.8624C11.0949 14.4714 13.843 11.697 17.2021 11.697H17.2017ZM9.45423 0C11.1202 0 12.471 1.36364 12.471 3.0455C12.471 4.72732 11.1202 6.09251 9.45423 6.09251C7.78827 6.09251 6.43595 4.72736 6.43595 3.0455C6.43595 1.36368 7.78823 0 9.45423 0ZM24.9477 0C26.6137 0 27.966 1.36364 27.966 3.0455C27.966 4.72732 26.6137 6.09251 24.9477 6.09251C23.2817 6.09251 21.9309 4.72736 21.9309 3.0455C21.9309 1.36368 23.2817 0 24.9477 0ZM11.0614 7.55595C12.3807 7.55595 13.4524 8.63628 13.4524 9.96963C13.4524 11.3045 12.3807 12.3863 11.0614 12.3863C9.73917 12.3863 8.66903 11.306 8.66903 9.96963C8.66903 8.6378 9.73917 7.55595 11.0614 7.55595ZM23.3432 7.55595C24.6624 7.55595 25.7341 8.63628 25.7341 9.96963C25.7341 11.3045 24.6639 12.3863 23.3432 12.3863C22.0209 12.3863 20.9493 11.306 20.9493 9.96963C20.9493 8.6378 22.0194 7.55595 23.3432 7.55595ZM4.70829 13.5968C7.2988 13.5968 9.41811 15.7362 9.41811 18.3515V20H0V18.3515C0 15.7363 2.11923 13.5968 4.70829 13.5968ZM4.70829 6.47415C6.37125 6.47415 7.71603 7.83476 7.71603 9.51053C7.71603 11.1893 6.37125 12.5499 4.70829 12.5499C3.04532 12.5499 1.70054 11.1893 1.70054 9.51053C1.70054 7.83476 3.04532 6.47415 4.70829 6.47415ZM29.6917 13.5968C32.2807 13.5968 34.4 15.7362 34.4 18.3515V20H24.9819V18.3515C24.9819 15.7363 27.1011 13.5968 29.6917 13.5968ZM29.6917 6.47415C31.3547 6.47415 32.6995 7.83476 32.6995 9.51053C32.6995 11.1893 31.3547 12.5499 29.6917 12.5499C28.0288 12.5499 26.684 11.1893 26.684 9.51053C26.684 7.83476 28.0288 6.47415 29.6917 6.47415ZM17.1998 2.46034C19.3551 2.46034 21.1005 4.22249 21.1005 6.39812C21.1005 8.57376 19.3549 10.3359 17.1998 10.3359C15.0447 10.3359 13.2992 8.57376 13.2992 6.39812C13.2992 4.22249 15.0447 2.46034 17.1998 2.46034Z" fill="#2E84FF"/>
</svg>
