<svg width="15" height="20" viewBox="0 0 15 20" fill="none" xmlns="http://www.w3.org/2000/svg">
<path fill-rule="evenodd" clip-rule="evenodd" d="M7.24128 0C3.2448 0 0 3.2448 0 7.24128C0 8.40506 0.606036 10.0465 1.49224 11.7595C3.44398 15.5344 6.69655 19.7328 6.69655 19.7328C6.82758 19.9017 7.02844 20 7.24139 20C7.45433 20 7.65604 19.9017 7.78623 19.7328C7.78623 19.7328 11.0379 15.5346 12.9905 11.7595C13.8767 10.0457 14.4828 8.4052 14.4828 7.24128C14.4828 3.2448 11.238 0 7.2415 0H7.24128ZM7.24128 4.13794C5.52835 4.13794 4.13794 5.52846 4.13794 7.24128C4.13794 8.95409 5.52846 10.3446 7.24128 10.3446C8.9541 10.3446 10.3446 8.95409 10.3446 7.24128C10.3446 5.52846 8.9541 4.13794 7.24128 4.13794Z" fill="#2E84FF"/>
</svg>
