<svg width="18" height="20" viewBox="0 0 18 20" fill="none" xmlns="http://www.w3.org/2000/svg">
<path d="M17.0679 2.86492L14.5405 0.00234378C14.5405 0.00234378 11.6209 2.60393 8.53354 0C5.44596 2.60398 2.52658 0.00234378 2.52658 0.00234378L0 2.86492C0 2.86492 2.01099 4.21335 0.844534 7.40009C-0.477337 11.0071 -0.844514 16.2218 8.53348 20C17.9116 16.2218 17.5444 11.0071 16.2224 7.40009C15.0568 4.21331 17.0677 2.86492 17.0677 2.86492H17.0679ZM7.86174 13.5382C7.64457 13.7554 7.36019 13.864 7.07581 13.864C6.79143 13.864 6.50705 13.7554 6.28988 13.5382L3.3751 10.6227L4.94618 9.05158L7.07577 11.1812L12.1211 6.1358L13.6922 7.70689L7.86174 13.5382Z" fill="#2E84FF"/>
</svg>
