<svg width="20" height="20" viewBox="0 0 20 20" fill="none" xmlns="http://www.w3.org/2000/svg">
<path d="M1.29093 15.5733C0.0149888 16.8501 0 19.2329 0 19.3337C0 19.5103 0.0699591 19.6802 0.194888 19.8051C0.319818 19.9301 0.489718 20 0.666278 20C0.767055 20 3.14977 19.985 4.42669 18.7091C5.29287 17.8429 5.29287 16.4388 4.42669 15.5734C3.54969 14.7355 2.16878 14.7355 1.29099 15.5734L1.29093 15.5733Z" fill="#2E84FF"/>
<path d="M19.9728 2.38999C19.8845 1.12405 18.8768 0.116303 17.6109 0.02718C14.8749 -0.196863 12.2115 0.974971 10.5273 3.14284L4.88062 10.5136C4.6774 10.7784 4.70156 11.154 4.93892 11.3897L5.38534 11.8362L4.17104 13.0505C4.06027 13.1612 3.9978 13.3112 3.9978 13.4677C3.9978 13.6243 4.06027 13.7751 4.17104 13.885L6.11493 15.8289C6.22487 15.9397 6.37563 16.0021 6.53219 16.0021C6.68875 16.0021 6.83868 15.9397 6.94944 15.8289L8.16375 14.6146L8.61017 15.061C8.84588 15.2984 9.22149 15.3225 9.48634 15.1193L16.8571 9.4726C19.0233 7.78774 20.1943 5.125 19.9727 2.38992L19.9728 2.38999ZM15.941 7.19472C15.0756 8.06006 13.6713 8.06089 12.8061 7.19472C11.94 6.32938 11.94 4.92508 12.8053 4.05987C13.6748 3.21536 15.0615 3.22534 15.9186 4.08236C16.7756 4.93936 16.7856 6.32598 15.9411 7.19567L15.941 7.19472Z" fill="#2E84FF"/>
<path d="M0.666297 9.03451H3.50137C3.75623 9.03867 4.00858 9.07282 4.25512 9.13862L8.14133 4.06737L6.8379 3.74257C5.6036 3.43691 4.29941 3.79837 3.39816 4.69537L0.195078 7.89781C0.00518718 8.08853 -0.0522904 8.37504 0.0509936 8.62405C0.154269 8.87225 0.396631 9.03466 0.666472 9.03466L0.666297 9.03451Z" fill="#2E84FF"/>
<path d="M15.9327 11.8596L10.8606 15.7441C10.9264 15.9906 10.9614 16.2438 10.9647 16.4987V19.3337C10.9647 19.6036 11.1271 19.8459 11.3761 19.9492C11.6252 20.0525 11.9117 19.995 12.1015 19.8051L15.3055 16.6021C16.2016 15.7001 16.5623 14.3966 16.2574 13.1623L15.9327 11.8596Z" fill="#2E84FF"/>
</svg>
