<svg width="19" height="20" viewBox="0 0 19 20" fill="none" xmlns="http://www.w3.org/2000/svg">
<path d="M14.5461 20H6.36409C6.95388 19.2133 7.2735 18.2562 7.2735 17.2726V14.5453H17.2735C17.5147 14.5453 17.7457 14.6416 17.9161 14.8121C18.0866 14.9825 18.1829 15.2135 18.1829 15.4547V16.3641C18.1829 17.3281 17.7994 18.2536 17.1175 18.9354C16.4357 19.6172 15.5109 20 14.5461 20ZM14.5461 0.908536V12.7273H6.36409C5.86209 12.7273 5.45468 13.1347 5.45468 13.6367V17.2735V17.2727C5.45468 18.7795 4.23419 20 2.72734 20C1.22134 20 -1.33171e-05 18.7795 -1.33171e-05 17.2727V0.908556C-1.33171e-05 0.40655 0.407387 0 0.909394 0H13.6367C13.8779 0 14.1098 0.0954572 14.2802 0.265927C14.4507 0.436398 14.5461 0.667329 14.5461 0.908536Z" fill="#2E84FF"/>
</svg>
