<svg width="23" height="20" viewBox="0 0 23 20" fill="none" xmlns="http://www.w3.org/2000/svg">
<path d="M22.1099 6.05948C22.1099 2.71268 19.397 0 16.0505 0C14.1227 0 12.4074 0.902533 11.2986 2.30519L11.2657 2.31988C10.238 1.29642 9.07547 0.696159 8.01313 0.342928C8.01831 0.340337 8.02176 0.336019 8.02695 0.332564C7.41027 0.1201 6.75044 5.11331e-05 6.06037 5.11331e-05C2.71357 5.11331e-05 0 2.71296 0 6.05953C0 6.67707 0.0941402 7.27214 0.265144 7.83351C0.266007 7.83178 0.267735 7.83006 0.269462 7.82919C0.750533 9.55396 1.7377 10.6361 2.04605 10.9029L3.35539 12.1544L3.43312 12.2304L3.35193 12.3142C2.9581 12.7167 2.96673 13.3618 3.3692 13.7548C3.77167 14.1478 4.41598 14.14 4.80981 13.7375L4.89445 13.6537C4.90395 13.646 4.91604 13.6399 4.92899 13.6399C4.96008 13.6399 4.98427 13.6641 4.98427 13.6961C4.98427 13.709 4.97909 13.7194 4.97131 13.7297L4.97218 13.7306L4.89099 13.8135C4.49717 14.216 4.50579 14.8612 4.90826 15.2533C5.31073 15.6471 5.9559 15.6393 6.34887 15.236L6.42833 15.1574C6.43869 15.1453 6.45337 15.1375 6.46978 15.1375C6.50087 15.1375 6.52592 15.1617 6.52592 15.1928C6.52592 15.2066 6.52074 15.2178 6.5121 15.2273V15.2282L6.51038 15.2299C6.50951 15.2308 6.50865 15.2325 6.50692 15.2334L6.43005 15.312C6.03623 15.7145 6.04485 16.3596 6.44733 16.7526C6.8498 17.1456 7.49497 17.1378 7.88793 16.7362L7.97084 16.6507L7.97257 16.6524C7.98207 16.6455 7.9933 16.6395 8.00625 16.6395C8.03734 16.6395 8.06239 16.6636 8.06239 16.6956C8.06239 16.7077 8.05721 16.7189 8.0503 16.7275L8.05116 16.7284L8.04685 16.7327C8.04598 16.7336 8.04512 16.7345 8.04512 16.7353L7.96998 16.8122C7.57615 17.2147 7.58478 17.8598 7.98725 18.2528C8.38972 18.6458 9.03489 18.638 9.42786 18.2355L9.52372 18.1371L9.49695 18.1725L10.8512 19.4619C11.2157 19.8083 11.6933 20 12.1951 20H12.221C12.7513 19.9931 13.2453 19.7772 13.6106 19.3928C13.9656 19.0197 14.1556 18.511 14.1383 17.9868C14.1599 17.9876 14.1815 17.9885 14.2083 17.9876C14.7377 17.9816 15.23 17.7657 15.5962 17.3813C15.9495 17.0099 16.1369 16.5246 16.1274 16.0063C16.1507 16.0072 16.1809 16.0081 16.2068 16.0081C16.7371 16.0012 17.2303 15.7853 17.5965 15.4009C17.9515 15.0269 18.1414 14.5191 18.125 13.994C18.1466 13.9948 18.1751 13.9957 18.195 13.9957C18.7253 13.9888 19.2185 13.7729 19.5829 13.3885C20.2549 12.6838 20.2903 11.6033 19.7125 10.8527C21.1263 9.74034 22.1101 7.99148 22.1101 6.05928L22.1099 6.05948ZM18.797 12.6355C18.6406 12.7996 18.4126 12.8946 18.1708 12.8946C17.9437 12.8946 17.7329 12.8134 17.5792 12.6666L16.1498 11.3322C16.0591 11.2657 15.9477 11.2251 15.8259 11.2251C15.5228 11.2251 15.2766 11.4712 15.2766 11.7752C15.2766 11.9506 15.3604 12.1052 15.4891 12.2062L16.7794 13.4301C17.1232 13.7583 17.137 14.3041 16.8105 14.6487C16.6542 14.8137 16.4262 14.9087 16.1844 14.9087C15.9581 14.9087 15.7473 14.8275 15.5927 14.6807L14.2135 13.3558L14.2126 13.3575C14.1141 13.2677 13.9846 13.2115 13.8412 13.2115C13.5381 13.2115 13.2919 13.4577 13.2919 13.7617C13.2919 13.9077 13.3506 14.0407 13.4439 14.14L13.4422 14.1417L14.7817 15.4156C15.122 15.7438 15.135 16.2897 14.8102 16.6326C14.6539 16.7967 14.4259 16.8908 14.1841 16.8908C13.957 16.8908 13.7471 16.8096 13.5925 16.6628L12.2304 15.3777L12.2296 15.3785C12.1303 15.2775 11.9921 15.2144 11.8392 15.2144C11.5361 15.2144 11.2899 15.4606 11.2899 15.7646C11.2899 15.9252 11.3599 16.0669 11.4695 16.1679L12.7936 17.4254C13.1373 17.7536 13.1511 18.3003 12.8247 18.6441C12.6683 18.8082 12.4403 18.9032 12.1985 18.9032C11.9714 18.9032 11.7615 18.8228 11.6069 18.6752L10.2587 17.3917L10.339 17.3097C10.7328 16.9072 10.7242 16.2612 10.3209 15.8682C9.91839 15.4753 9.27408 15.483 8.88025 15.8855L8.83361 15.933L8.83188 15.9313C8.82152 15.9425 8.8077 15.9503 8.79043 15.9503C8.7602 15.9503 8.73602 15.9261 8.73602 15.895C8.73602 15.8777 8.74379 15.8622 8.75675 15.8518L8.7982 15.8104C9.19203 15.4079 9.1834 14.7619 8.78093 14.3698C8.37846 13.9759 7.73329 13.9846 7.33946 14.387L7.2911 14.4363L7.29023 14.4354C7.28073 14.4423 7.26951 14.4484 7.25655 14.4484C7.22632 14.4484 7.20128 14.4233 7.20128 14.3931C7.20128 14.3801 7.2056 14.3698 7.21337 14.3603L7.2125 14.3594L7.21682 14.3551C7.21769 14.3542 7.21769 14.3534 7.21855 14.3525L7.25828 14.311C7.65124 13.9077 7.64348 13.2634 7.24014 12.8696C6.83767 12.4766 6.19336 12.4844 5.79868 12.8868L5.74599 12.9369C5.73563 12.9508 5.72095 12.9594 5.70281 12.9594C5.67258 12.9594 5.64754 12.9343 5.64754 12.9041C5.64754 12.8868 5.65617 12.8713 5.66913 12.8618L5.71749 12.8117C6.11046 12.4092 6.10269 11.7641 5.69936 11.3702C5.29689 10.9773 4.65258 10.9859 4.25875 11.3875L4.20607 11.4411L2.78791 10.067C2.77409 10.0549 1.73251 9.13938 1.24971 7.15109C1.25317 7.14936 1.25662 7.14764 1.26094 7.14677C1.18234 6.79785 1.13657 6.43509 1.13657 6.06287C1.13657 3.34842 3.34413 1.14073 6.0596 1.14073C6.46379 1.14073 6.85505 1.19514 7.23074 1.28755C7.23074 1.28669 7.23074 1.28669 7.23161 1.28669C8.19547 1.55183 9.29578 2.03635 10.27 2.92595L5.25806 7.88524C5.05423 8.07697 4.92555 8.34643 4.92555 8.64786C4.92555 9.22825 5.39625 9.69809 5.97578 9.69809C6.00514 9.69809 6.03278 9.69204 6.06214 9.68945C6.06301 9.69118 6.06387 9.6929 6.06473 9.69377C6.08719 9.69118 6.10964 9.68599 6.13296 9.68254C6.1606 9.67822 6.18738 9.6739 6.21415 9.66872C7.04759 9.50376 8.62127 7.8291 10.0522 6.93349C10.8598 6.43515 11.3408 6.27797 12.227 6.27797C12.9654 6.27797 13.6356 6.55779 14.1452 7.01381C14.2065 7.05872 14.2704 7.114 14.3421 7.18482L17.4055 10.1266L17.4046 10.1292L18.7364 11.4048C19.0818 11.7321 19.1242 12.2918 18.7968 12.6355L18.797 12.6355Z" fill="#2E84FF"/>
</svg>
