<svg width="20" height="20" viewBox="0 0 20 20" fill="none" xmlns="http://www.w3.org/2000/svg">
<path d="M18.7637 3.42418L15.0403 7.14645C15.0437 7.15763 15.047 7.16882 15.0504 7.18001L17.8765 17.5815H17.8776C17.975 18.0425 17.8474 18.5236 17.533 18.8749L16.5999 19.8079V19.8068C16.478 19.95 16.2912 20.0205 16.1043 19.9948C15.9175 19.9679 15.7575 19.8482 15.6791 19.677L11.8572 12.7572L10.6444 11.5444L7.43683 14.7497C7.06987 15.0786 6.65926 15.3539 6.21621 15.5709L6.93001 17.926C7.04189 18.3825 6.92106 18.8636 6.60779 19.2138L6.32138 19.5002C6.0193 19.8012 5.53038 19.8012 5.22718 19.5002L3.53667 17.8086C3.52548 17.7985 3.51541 17.7873 3.50534 17.7761L3.50422 17.7772L2.22317 16.4951H2.22429C2.2131 16.485 2.20191 16.4749 2.19072 16.4637L0.500206 14.7721C0.199239 14.47 0.199239 13.9811 0.500206 13.6779L0.786622 13.3915C1.13571 13.0794 1.61677 12.9585 2.07326 13.0693L4.4295 13.7831V13.7842C4.64543 13.3411 4.92179 12.9305 5.24959 12.5636L8.45602 9.356L7.24322 8.1432L0.322255 4.32011C0.151076 4.2418 0.0313707 4.08181 0.00562189 3.89607C-0.0212296 3.70923 0.0492546 3.52239 0.192463 3.39931L1.12555 2.46623V2.46734C1.47687 2.15295 1.95682 2.0254 2.41889 2.12276L12.8204 4.94888C12.8316 4.95224 12.8428 4.95448 12.854 4.95895L16.5751 1.23669C17.1792 0.63252 19.2155 -0.423641 19.8196 0.180526C20.4237 0.784693 19.3665 2.8198 18.7634 3.42391L18.7637 3.42418Z" fill="#2E84FF"/>
</svg>
