<svg width="19" height="20" viewBox="0 0 19 20" fill="none" xmlns="http://www.w3.org/2000/svg">
<path d="M13.0803 5.38245H5.38657C5.38657 5.38245 0 9.99836 0 15.3841C0 18.4602 2.31617 20 3.84695 20H14.6192C16.1565 20 18.4662 18.4611 18.4662 15.3841C18.467 9.99836 13.0805 5.38245 13.0805 5.38245H13.0803ZM10.0016 16.0749V17.3071H8.46438L8.4652 16.0791C7.33262 15.8685 6.62033 15.1694 6.57015 14.1544H7.9026C7.96758 14.6874 8.50468 15.0304 9.28195 15.0304C9.99752 15.0304 10.505 14.6833 10.505 14.1881C10.505 13.767 10.1768 13.5269 9.36832 13.3459L8.51127 13.1625C7.31124 12.9116 6.72151 12.2865 6.72151 11.2822C6.72151 10.278 7.39103 9.55334 8.45617 9.31564V8.07613H9.99343V9.31811C11.0339 9.55006 11.7265 10.2591 11.7602 11.2132H10.4738C10.4088 10.6933 9.92433 10.3454 9.25893 10.3454C8.59354 10.3454 8.11319 10.6654 8.11319 11.1663C8.11319 11.5726 8.42656 11.7979 9.19972 11.9707L9.99343 12.1393C11.3177 12.4173 11.8885 12.9815 11.8885 14.0113C11.8885 15.1126 11.1811 15.8496 10.0017 16.075L10.0016 16.0749Z" fill="#2E84FF"/>
<path d="M13.0802 0.764926H10.954C10.5148 0.278004 9.88883 0 9.23329 0C8.57775 0 7.95184 0.278004 7.51261 0.764926H5.38636C5.13222 0.76657 4.89451 0.893235 4.7514 1.1038C4.6091 1.31436 4.57949 1.58167 4.67243 1.81773L5.38636 3.84109L13.08 3.84192L13.794 1.81855V1.81773C13.8869 1.58167 13.8573 1.31436 13.715 1.1038C13.5719 0.893242 13.3342 0.766568 13.08 0.764926L13.0802 0.764926Z" fill="#2E84FF"/>
</svg>
